<svg width="800" height="600" viewBox="0 0 800 600" xmlns="http://www.w3.org/2000/svg">
  <defs>
    <linearGradient id="bg1" x1="0%" y1="0%" x2="100%" y2="100%">
      <stop offset="0%" style="stop-color:#f5f0ff"/>
      <stop offset="100%" style="stop-color:#ffd6f0"/>
    </linearGradient>
    <linearGradient id="grad1" x1="0%" y1="0%" x2="100%" y2="100%">
      <stop offset="0%" style="stop-color:#8B3FBF"/>
      <stop offset="100%" style="stop-color:#FF63B9"/>
    </linearGradient>
  </defs>
  <rect width="800" height="600" fill="url(#bg1)"/>
  <circle cx="150" cy="100" r="80" fill="#FFD6F0" opacity="0.3"/>
  <circle cx="650" cy="500" r="100" fill="#E0C4FF" opacity="0.3"/>
  <circle cx="700" cy="150" r="60" fill="#FFB8E6" opacity="0.3"/>
  <g transform="translate(250,150)">
    <rect x="80" y="50" width="180" height="320" rx="20" fill="#fff" stroke="url(#grad1)" stroke-width="4"/>
    <rect x="100" y="70" width="140" height="240" rx="10" fill="url(#grad1)"/>
    <circle cx="170" cy="330" r="15" fill="#fff" opacity="0.3"/>
    <g transform="translate(140,140)">
      <rect x="10" y="20" width="40" height="30" rx="5" fill="#fff" opacity="0.9"/>
      <circle cx="30" cy="10" r="12" fill="none" stroke="#fff" stroke-width="3" opacity="0.9"/>
      <circle cx="30" cy="30" r="3" fill="#8B3FBF"/>
    </g>
    <circle cx="30" cy="150" r="35" fill="#8B3FBF"/>
    <ellipse cx="30" cy="230" rx="50" ry="70" fill="#8B3FBF"/>
    <ellipse cx="-10" cy="210" rx="15" ry="50" fill="#8B3FBF" transform="rotate(-20 -10 210)"/>
    <ellipse cx="70" cy="210" rx="15" ry="50" fill="#8B3FBF" transform="rotate(20 70 210)"/>
  </g>
  <g transform="translate(550,250)">
    <path d="M30 10 L50 20 L50 50 C50 60 40 70 30 75 C20 70 10 60 10 50 L10 20 Z" fill="url(#grad1)" opacity="0.8"/>
    <path d="M30 30 L25 40 L28 40 L35 50 L45 30 L40 30 L35 38 Z" fill="#fff"/>
  </g>
  <circle cx="100" cy="300" r="8" fill="#FF63B9" opacity="0.6"/>
  <circle cx="680" cy="100" r="10" fill="#8B3FBF" opacity="0.5"/>
  <circle cx="120" cy="450" r="6" fill="#FFB8E6" opacity="0.7"/>
</svg>